<svg height="512" viewBox="0 0 512 512" width="512" xmlns="http://www.w3.org/2000/svg" xmlns:xlink="http://www.w3.org/1999/xlink"><linearGradient id="a" gradientUnits="userSpaceOnUse" x1="-17.701" x2="485.194" y1="497.701" y2="-5.194" data-name="New Gradient Swatch 1"><stop offset="0" stop-color="#003f8a"/><stop offset=".518" stop-color="#00d7df"/><stop offset="1" stop-color="#006df0"/></linearGradient><linearGradient id="b" x1="-37.701" x2="465.194" xlink:href="#a" y1="477.701" y2="-25.194"/><linearGradient id="c" x1="-11.701" x2="491.194" xlink:href="#a" y1="503.701" y2=".806"/><linearGradient id="d" x1="-141.701" x2="361.194" xlink:href="#a" y1="373.701" y2="-129.194"/><linearGradient id="e" x1="-109.701" x2="393.194" xlink:href="#a" y1="405.701" y2="-97.194"/><linearGradient id="f" x1="-77.701" x2="425.194" xlink:href="#a" y1="437.701" y2="-65.194"/><linearGradient id="g" x1="-13.701" x2="489.194" xlink:href="#a" y1="501.701" y2="-1.194"/><linearGradient id="h" x1="-45.701" x2="457.194" xlink:href="#a" y1="469.701" y2="-33.194"/><linearGradient id="i" x1="18.299" x2="521.194" xlink:href="#a" y1="533.701" y2="30.806"/><linearGradient id="j" x1="42.299" x2="545.194" xlink:href="#a" y1="557.701" y2="54.806"/><linearGradient id="k" x1="-61.701" x2="441.194" xlink:href="#a" y1="453.701" y2="-49.194"/><linearGradient id="l" x1="-29.701" x2="473.194" xlink:href="#a" y1="485.701" y2="-17.194"/><linearGradient id="m" x1="2.299" x2="505.194" xlink:href="#a" y1="517.701" y2="14.806"/><linearGradient id="n" x1="66.299" x2="569.194" xlink:href="#a" y1="581.701" y2="78.806"/><linearGradient id="o" x1="34.299" x2="537.194" xlink:href="#a" y1="549.701" y2="46.806"/><linearGradient id="p" x1="-93.701" x2="409.194" xlink:href="#a" y1="421.701" y2="-81.194"/><linearGradient id="q" x1="98.299" x2="601.194" xlink:href="#a" y1="613.701" y2="110.806"/><g><path d="m476 48h-440a28.031 28.031 0 0 0 -28 28v296a28.031 28.031 0 0 0 28 28h154.56l-5.34 32h-33.22a8 8 0 0 0 -8 8v16h-32a8 8 0 0 0 0 16h288a8 8 0 0 0 0-16h-32v-16a8 8 0 0 0 -8-8h-33.22l-5.34-32h154.56a28.031 28.031 0 0 0 28-28v-296a28.031 28.031 0 0 0 -28-28zm-124 400v8h-192v-8zm-150.56-16 5.34-32h98.44l5.34 32zm286.56-60a12.01 12.01 0 0 1 -12 12h-440a12.01 12.01 0 0 1 -12-12v-20h464zm0-36h-464v-260a12.01 12.01 0 0 1 12-12h440a12.01 12.01 0 0 1 12 12z" fill="url(#a)"/><path d="m96 360h-48a8 8 0 0 0 0 16h48a8 8 0 0 0 0-16z" fill="url(#b)"/><path d="m128 360h-8a8 8 0 0 0 0 16h8a8 8 0 0 0 0-16z" fill="url(#c)"/><path d="m56 200h48a8 8 0 0 0 8-8v-80a8 8 0 0 0 -8-8h-48a8 8 0 0 0 -8 8v80a8 8 0 0 0 8 8zm8-80h32v64h-32z" fill="url(#d)"/><path d="m136 120h8v72a8 8 0 0 0 16 0v-80a8 8 0 0 0 -8-8h-16a8 8 0 0 0 0 16z" fill="url(#e)"/><path d="m184 200h48a8 8 0 0 0 8-8v-80a8 8 0 0 0 -8-8h-48a8 8 0 0 0 -8 8v80a8 8 0 0 0 8 8zm8-80h32v64h-32z" fill="url(#f)"/><path d="m312 200h48a8 8 0 0 0 8-8v-80a8 8 0 0 0 -8-8h-48a8 8 0 0 0 -8 8v80a8 8 0 0 0 8 8zm8-80h32v64h-32z" fill="url(#g)"/><path d="m264 120h8v72a8 8 0 0 0 16 0v-80a8 8 0 0 0 -8-8h-16a8 8 0 0 0 0 16z" fill="url(#h)"/><path d="m392 120h8v72a8 8 0 0 0 16 0v-80a8 8 0 0 0 -8-8h-16a8 8 0 0 0 0 16z" fill="url(#i)"/><path d="m440 120h8v72a8 8 0 0 0 16 0v-80a8 8 0 0 0 -8-8h-16a8 8 0 0 0 0 16z" fill="url(#j)"/><path d="m152 216h-48a8 8 0 0 0 -8 8v80a8 8 0 0 0 8 8h48a8 8 0 0 0 8-8v-80a8 8 0 0 0 -8-8zm-8 80h-32v-64h32z" fill="url(#k)"/><path d="m184 232h8v72a8 8 0 0 0 16 0v-80a8 8 0 0 0 -8-8h-16a8 8 0 0 0 0 16z" fill="url(#l)"/><path d="m280 216h-48a8 8 0 0 0 -8 8v80a8 8 0 0 0 8 8h48a8 8 0 0 0 8-8v-80a8 8 0 0 0 -8-8zm-8 80h-32v-64h32z" fill="url(#m)"/><path d="m408 216h-48a8 8 0 0 0 -8 8v80a8 8 0 0 0 8 8h48a8 8 0 0 0 8-8v-80a8 8 0 0 0 -8-8zm-8 80h-32v-64h32z" fill="url(#n)"/><path d="m312 232h8v72a8 8 0 0 0 16 0v-80a8 8 0 0 0 -8-8h-16a8 8 0 0 0 0 16z" fill="url(#o)"/><path d="m56 232h8v72a8 8 0 0 0 16 0v-80a8 8 0 0 0 -8-8h-16a8 8 0 0 0 0 16z" fill="url(#p)"/><path d="m440 232h8v72a8 8 0 0 0 16 0v-80a8 8 0 0 0 -8-8h-16a8 8 0 0 0 0 16z" fill="url(#q)"/></g></svg>