<svg height="512" viewBox="0 0 512 512" width="512" xmlns="http://www.w3.org/2000/svg" xmlns:xlink="http://www.w3.org/1999/xlink"><linearGradient id="a" gradientUnits="userSpaceOnUse" x1=".573" x2="502.982" y1="496.545" y2="-5.863" data-name="New Gradient Swatch 1"><stop offset="0" stop-color="#003f8a"/><stop offset=".518" stop-color="#00d7df"/><stop offset="1" stop-color="#006df0"/></linearGradient><linearGradient id="b" x1="8.014" x2="510.422" xlink:href="#a" y1="503.986" y2="1.578"/><linearGradient id="c" x1="32.014" x2="534.422" xlink:href="#a" y1="527.986" y2="25.578"/><linearGradient id="d" x1="48.014" x2="550.422" xlink:href="#a" y1="543.986" y2="41.578"/><linearGradient id="e" x1="64.014" x2="566.422" xlink:href="#a" y1="559.986" y2="57.578"/><linearGradient id="g" x1="98.014" x2="600.422" xlink:href="#a" y1="593.986" y2="91.578"/><g><path d="m384 40a120.523 120.523 0 0 0 -48.86 10.37 127.541 127.541 0 0 0 -95.14-42.37c-66.38 0-121.27 50.98-127.42 115.84a80.021 80.021 0 1 0 -24.58 156.16h56v216a8 8 0 0 0 8 8h160a8.008 8.008 0 0 0 5.66-2.34l48-48a8.008 8.008 0 0 0 2.34-5.66v-168h16a120 120 0 0 0 0-240zm-64 436.69v-20.69h20.69zm32-36.69h-40a8 8 0 0 0 -8 8v40h-144v-272h192zm91.42-194.64a103.337 103.337 0 0 1 -59.42 18.64h-16v-56a8 8 0 0 0 -8-8h-208a8 8 0 0 0 -8 8v56h-56a64 64 0 1 1 28.44-121.34 8 8 0 0 0 11.57-7.13c.24-61.5 50.48-111.53 111.99-111.53a111.627 111.627 0 0 1 86.85 41.29 8 8 0 0 0 9.84 2.06 102.911 102.911 0 0 1 47.31-11.35 104 104 0 0 1 59.42 189.36z" fill="url(#a)"/><path d="m184 280h144a8 8 0 0 0 8-8v-32a8 8 0 0 0 -8-8h-144a8 8 0 0 0 -8 8v32a8 8 0 0 0 8 8zm8-32h128v16h-128z" fill="url(#b)"/><path d="m184 312h144a8 8 0 0 0 0-16h-144a8 8 0 0 0 0 16z" fill="url(#c)"/><path d="m184 344h144a8 8 0 0 0 0-16h-144a8 8 0 0 0 0 16z" fill="url(#d)"/><path d="m184 376h144a8 8 0 0 0 0-16h-144a8 8 0 0 0 0 16z" fill="url(#e)"/><path d="m264 392h-80a8 8 0 0 0 0 16h80a8 8 0 0 0 0-16z" fill="url(#e)"/><path d="m304 400a8 8 0 0 0 -8-8h-8a8 8 0 0 0 0 16h8a8 8 0 0 0 8-8z" fill="url(#g)"/></g></svg>