<svg height="512" viewBox="0 0 512 512" width="512" xmlns="http://www.w3.org/2000/svg" xmlns:xlink="http://www.w3.org/1999/xlink"><linearGradient id="a" gradientUnits="userSpaceOnUse" x1="-9.093" x2="493.277" y1="497.095" y2="-5.274" data-name="New Gradient Swatch 1"><stop offset="0" stop-color="#003f8a"/><stop offset=".518" stop-color="#00d7df"/><stop offset="1" stop-color="#006df0"/></linearGradient><linearGradient id="b" x1="2.906" x2="505.276" xlink:href="#a" y1="509.094" y2="6.725"/><linearGradient id="c" x1="30.906" x2="533.275" xlink:href="#a" y1="537.094" y2="34.724"/><linearGradient id="d" x1="-25.094" x2="477.276" xlink:href="#a" y1="481.094" y2="-21.275"/><g><path d="m408 8h-304a8 8 0 0 0 -8 8v480a8 8 0 0 0 8 8h256a8.008 8.008 0 0 0 5.66-2.34l48-48a8.008 8.008 0 0 0 2.34-5.66v-432a8 8 0 0 0 -8-8zm-40 468.69v-20.69h20.69zm32-36.69h-40a8 8 0 0 0 -8 8v40h-240v-464h288z" fill="url(#a)"/><path d="m291.969 193.054a8 8 0 0 0 -10.915 2.977l-64 112a8 8 0 1 0 13.892 7.938l64-112a8 8 0 0 0 -2.977-10.915z" fill="url(#b)"/><path d="m366.4 260.8a8 8 0 0 0 0-9.6l-48-64a8 8 0 0 0 -12.8 9.6l44.4 59.2-44.4 59.2a8 8 0 1 0 12.8 9.6z" fill="url(#c)"/><path d="m204.8 185.6a8 8 0 0 0 -11.2 1.6l-48 64a8 8 0 0 0 0 9.6l48 64a8 8 0 1 0 12.8-9.6l-44.4-59.2 44.4-59.2a8 8 0 0 0 -1.6-11.2z" fill="url(#d)"/></g></svg>