<svg height="512" viewBox="0 0 512 512" width="512" xmlns="http://www.w3.org/2000/svg" xmlns:xlink="http://www.w3.org/1999/xlink"><linearGradient id="a" gradientUnits="userSpaceOnUse" x1="25.013" x2="521.517" y1="506.987" y2="10.483" data-name="New Gradient Swatch 1"><stop offset="0" stop-color="#003f8a"/><stop offset=".518" stop-color="#00d7df"/><stop offset="1" stop-color="#006df0"/></linearGradient><linearGradient id="b" x1="-8.987" x2="487.517" xlink:href="#a" y1="472.987" y2="-23.517"/><linearGradient id="c" x1="17.013" x2="513.517" xlink:href="#a" y1="498.987" y2="2.483"/><linearGradient id="d" x1="3.013" x2="499.517" xlink:href="#a" y1="484.987" y2="-11.517"/><linearGradient id="e" x1="7.013" x2="503.597" xlink:href="#a" y1="488.988" y2="-7.597"/><linearGradient id="f" x1="35.012" x2="531.517" xlink:href="#a" y1="516.987" y2="20.483"/><linearGradient id="g" x1="-20.988" x2="475.517" xlink:href="#a" y1="460.987" y2="-35.517"/><g><path d="m496 368h-32v-260a28.031 28.031 0 0 0 -28-28h-360a28.031 28.031 0 0 0 -28 28v260h-32a8 8 0 0 0 -8 8v28a28.031 28.031 0 0 0 28 28h440a28.031 28.031 0 0 0 28-28v-28a8 8 0 0 0 -8-8zm-432-260a12.01 12.01 0 0 1 12-12h360a12.01 12.01 0 0 1 12 12v260h-384zm224 276v8h-64v-8zm200 20a12.01 12.01 0 0 1 -12 12h-440a12.01 12.01 0 0 1 -12-12v-20h184v16a8 8 0 0 0 8 8h80a8 8 0 0 0 8-8v-16h184z" fill="url(#a)"/><path d="m88 392h-48a8 8 0 0 0 0 16h48a8 8 0 0 0 0-16z" fill="url(#b)"/><path d="m120 392h-8a8 8 0 0 0 0 16h8a8 8 0 0 0 0-16z" fill="url(#c)"/><path d="m440 352v-240a8 8 0 0 0 -8-8h-352a8 8 0 0 0 -8 8v240a8 8 0 0 0 8 8h352a8 8 0 0 0 8-8zm-16-8h-336v-224h336z" fill="url(#d)"/><path d="m220.031 302.946a8 8 0 0 0 10.915-2.977l64-112a8 8 0 1 0 -13.892-7.938l-64 112a8 8 0 0 0 2.977 10.915z" fill="url(#e)"/><path d="m307.2 310.4a8 8 0 0 0 11.2-1.6l48-64a8 8 0 0 0 0-9.6l-48-64a8 8 0 0 0 -12.8 9.6l44.4 59.2-44.4 59.2a8 8 0 0 0 1.6 11.2z" fill="url(#f)"/><path d="m193.6 308.8a8 8 0 1 0 12.8-9.6l-44.4-59.2 44.4-59.2a8 8 0 1 0 -12.8-9.6l-48 64a8 8 0 0 0 0 9.6z" fill="url(#g)"/></g></svg>