<svg height="512" viewBox="0 0 512 512" width="512" xmlns="http://www.w3.org/2000/svg" xmlns:xlink="http://www.w3.org/1999/xlink"><linearGradient id="a" gradientUnits="userSpaceOnUse" x1="-44.43" x2="459.521" y1="460.43" y2="-43.521" data-name="New Gradient Swatch 1"><stop offset="0" stop-color="#003f8a"/><stop offset=".518" stop-color="#00d7df"/><stop offset="1" stop-color="#006df0"/></linearGradient><linearGradient id="b" x1="-28.43" x2="475.521" xlink:href="#a" y1="476.43" y2="-27.521"/><linearGradient id="c" x1="-12.43" x2="491.521" xlink:href="#a" y1="492.43" y2="-11.521"/><linearGradient id="d" x1="-8.43" x2="495.521" xlink:href="#a" y1="496.43" y2="-7.521"/><linearGradient id="e" x1="17.57" x2="521.521" xlink:href="#a" y1="522.43" y2="18.479"/><linearGradient id="f" x1="29.571" x2="533.522" xlink:href="#a" y1="534.432" y2="30.48"/><linearGradient id="g" x1="115.57" x2="619.521" xlink:href="#a" y1="620.43" y2="116.479"/><linearGradient id="h" x1="131.57" x2="635.521" xlink:href="#a" y1="636.43" y2="132.479"/><linearGradient id="i" x1="147.57" x2="651.521" xlink:href="#a" y1="652.43" y2="148.479"/><linearGradient id="j" x1="151.57" x2="655.521" xlink:href="#a" y1="656.43" y2="152.479"/><linearGradient id="k" x1="177.57" x2="681.521" xlink:href="#a" y1="682.43" y2="178.479"/><g><path d="m40 320a8 8 0 0 0 8 8h96a8 8 0 0 0 0-16h-96a8 8 0 0 0 -8 8z" fill="url(#a)"/><path d="m144 344h-96a8 8 0 0 0 0 16h96a8 8 0 0 0 0-16z" fill="url(#b)"/><path d="m144 376h-96a8 8 0 0 0 0 16h96a8 8 0 0 0 0-16z" fill="url(#c)"/><path d="m96 408h-48a8 8 0 0 0 0 16h48a8 8 0 0 0 0-16z" fill="url(#d)"/><path d="m128 408h-8a8 8 0 0 0 0 16h8a8 8 0 0 0 0-16z" fill="url(#e)"/><path d="m496 280h-72v-40a8 8 0 0 0 -8-8h-152v-32h96a8 8 0 0 0 8-8v-128a8 8 0 0 0 -8-8h-8v-40a8 8 0 0 0 -8-8h-176a8 8 0 0 0 -8 8v16h-8a8 8 0 0 0 -8 8v152a8 8 0 0 0 8 8h96v32h-152a8 8 0 0 0 -8 8v40h-72a8 8 0 0 0 -8 8v208a8 8 0 0 0 8 8h112a8.008 8.008 0 0 0 5.66-2.34l48-48a8.008 8.008 0 0 0 2.34-5.66v-160a8 8 0 0 0 -8-8h-72v-32h304v32h-72a8 8 0 0 0 -8 8v208a8 8 0 0 0 8 8h112a8.008 8.008 0 0 0 5.66-2.34l48-48a8.008 8.008 0 0 0 2.34-5.66v-160a8 8 0 0 0 -8-8zm-360 196.69v-20.69h20.69zm32-180.69v144h-40a8 8 0 0 0 -8 8v40h-96v-192zm8-272h160v32h-99.72l-13.62-20.44a8.033 8.033 0 0 0 -6.66-3.56h-40zm-16 160v-136h51.72l13.62 20.44a8.033 8.033 0 0 0 6.66 3.56h120v112zm296 292.69v-20.69h20.69zm32-36.69h-40a8 8 0 0 0 -8 8v40h-96v-192h144z" fill="url(#f)"/><path d="m368 328h96a8 8 0 0 0 0-16h-96a8 8 0 0 0 0 16z" fill="url(#g)"/><path d="m368 360h96a8 8 0 0 0 0-16h-96a8 8 0 0 0 0 16z" fill="url(#h)"/><path d="m368 392h96a8 8 0 0 0 0-16h-96a8 8 0 0 0 0 16z" fill="url(#i)"/><path d="m416 408h-48a8 8 0 0 0 0 16h48a8 8 0 0 0 0-16z" fill="url(#j)"/><path d="m440 424h8a8 8 0 0 0 0-16h-8a8 8 0 0 0 0 16z" fill="url(#k)"/></g></svg>