<svg height="512" viewBox="0 0 512 512" width="512" xmlns="http://www.w3.org/2000/svg" xmlns:xlink="http://www.w3.org/1999/xlink"><linearGradient id="a" gradientUnits="userSpaceOnUse" x1="9.972" x2="534.231" y1="514.507" y2="-9.752" data-name="New Gradient Swatch 1"><stop offset="0" stop-color="#003f8a"/><stop offset=".518" stop-color="#00d7df"/><stop offset="1" stop-color="#006df0"/></linearGradient><linearGradient id="b" x1="43.011" x2="567.27" xlink:href="#a" y1="547.546" y2="23.287"/><linearGradient id="c" x1="167.732" x2="691.991" xlink:href="#a" y1="672.268" y2="148.009"/><linearGradient id="d" x1="201.732" x2="725.991" xlink:href="#a" y1="706.268" y2="182.009"/><g><path d="m484 136h-12v-88a8 8 0 0 0 -8-8h-416a8 8 0 0 0 -8 8v24h-12a20.02 20.02 0 0 0 -20 20v360a20.02 20.02 0 0 0 20 20h456a20.02 20.02 0 0 0 20-20v-296a20.02 20.02 0 0 0 -20-20zm-428-80h400v80h-243.06l-29.78-59.58a8.011 8.011 0 0 0 -7.16-4.42h-120zm432 396a4 4 0 0 1 -4 4h-456a4 4 0 0 1 -4-4v-360a4 4 0 0 1 4-4h143.06l29.78 59.58a8.011 8.011 0 0 0 7.16 4.42h276a4 4 0 0 1 4 4z" fill="url(#a)"/><path d="m316 304h-4v-40a56 56 0 0 0 -112 0v40h-4a20.02 20.02 0 0 0 -20 20v72a20.02 20.02 0 0 0 20 20h120a20.02 20.02 0 0 0 20-20v-72a20.02 20.02 0 0 0 -20-20zm-100-40a40 40 0 0 1 80 0v40h-80zm104 132a4 4 0 0 1 -4 4h-120a4 4 0 0 1 -4-4v-72a4 4 0 0 1 4-4h120a4 4 0 0 1 4 4z" fill="url(#b)"/><path d="m440 432h-80a8 8 0 0 0 0 16h80a8 8 0 0 0 0-16z" fill="url(#c)"/><path d="m472 432h-8a8 8 0 0 0 0 16h8a8 8 0 0 0 0-16z" fill="url(#d)"/></g></svg>