<svg height="512" viewBox="0 0 512 512" width="512" xmlns="http://www.w3.org/2000/svg" xmlns:xlink="http://www.w3.org/1999/xlink"><linearGradient id="a" gradientUnits="userSpaceOnUse" x1="5.558" x2="505.856" y1="498.901" y2="-1.397" data-name="New Gradient Swatch 1"><stop offset="0" stop-color="#003f8a"/><stop offset=".518" stop-color="#00d7df"/><stop offset="1" stop-color="#006df0"/></linearGradient><linearGradient id="b" x1="119.329" x2="619.627" xlink:href="#a" y1="612.671" y2="112.373"/><linearGradient id="c" x1="151.329" x2="651.627" xlink:href="#a" y1="644.671" y2="144.373"/><g><path d="m452 104h-12v-88a8 8 0 0 0 -8-8h-352a8 8 0 0 0 -8 8v24h-12a20.02 20.02 0 0 0 -20 20v312a20.02 20.02 0 0 0 20 20h188v48a8.258 8.258 0 0 0 .07 1 32.124 32.124 0 0 0 -23.06 23h-90.02a32 32 0 1 0 0 16h90.02a32.008 32.008 0 0 0 61.98 0h89.02a32 32 0 1 0 0-16h-89.02a32.124 32.124 0 0 0 -23.06-23 8.258 8.258 0 0 0 .07-1v-48h188a20.02 20.02 0 0 0 20-20v-248a20.02 20.02 0 0 0 -20-20zm-348 384a16 16 0 1 1 16-16 16.021 16.021 0 0 1 -16 16zm303-32a16 16 0 1 1 -16 16 16.021 16.021 0 0 1 16-16zm-319-432h336v80h-228.06l-29.78-59.58a8.011 8.011 0 0 0 -7.16-4.42h-71zm184 448a16 16 0 1 1 -16-16 16.021 16.021 0 0 1 16 16zm184-100a4 4 0 0 1 -4 4h-392a4 4 0 0 1 -4-4v-312a4 4 0 0 1 4-4h94.06l29.78 59.58a8.011 8.011 0 0 0 7.16 4.42h261a4 4 0 0 1 4 4z" fill="url(#a)"/><path d="m408 352h-72a8 8 0 0 0 0 16h72a8 8 0 0 0 0-16z" fill="url(#b)"/><path d="m440 352h-8a8 8 0 0 0 0 16h8a8 8 0 0 0 0-16z" fill="url(#c)"/></g></svg>