<svg height="512" viewBox="0 0 512 512" width="512" xmlns="http://www.w3.org/2000/svg" xmlns:xlink="http://www.w3.org/1999/xlink"><linearGradient id="a" gradientUnits="userSpaceOnUse" x1="27.83" x2="530.374" y1="520.171" y2="17.626" data-name="New Gradient Swatch 1"><stop offset="0" stop-color="#003f8a"/><stop offset=".518" stop-color="#00d7df"/><stop offset="1" stop-color="#006df0"/></linearGradient><linearGradient id="b" x1="-42.171" x2="460.374" xlink:href="#a" y1="450.171" y2="-52.374"/><linearGradient id="c" x1="-6.171" x2="496.374" xlink:href="#a" y1="486.171" y2="-16.374"/><linearGradient id="d" x1="95.481" x2="598.026" xlink:href="#a" y1="587.822" y2="85.278"/><g><path d="m503.48 293.15-64-168a8.014 8.014 0 0 0 -7.48-5.15h-352a8.014 8.014 0 0 0 -7.48 5.15l-64 168a8.025 8.025 0 0 0 -.52 2.85v96a8 8 0 0 0 8 8h480a8 8 0 0 0 8-8v-96a8.025 8.025 0 0 0 -.52-2.85zm-417.97-157.15h340.98l57.9 152h-456.78zm402.49 248h-464v-80h464z" fill="url(#a)"/><path d="m40 376h48a8 8 0 0 0 8-8v-48a8 8 0 0 0 -8-8h-48a8 8 0 0 0 -8 8v48a8 8 0 0 0 8 8zm8-48h32v32h-32z" fill="url(#b)"/><path d="m112 376h48a8 8 0 0 0 8-8v-48a8 8 0 0 0 -8-8h-48a8 8 0 0 0 -8 8v48a8 8 0 0 0 8 8zm8-48h32v32h-32z" fill="url(#c)"/><path d="m456 320a24.041 24.041 0 0 0 -22.62 16h-233.38a8 8 0 0 0 0 16h233.38a24 24 0 1 0 22.62-32zm0 32a8 8 0 1 1 8-8 8.011 8.011 0 0 1 -8 8z" fill="url(#d)"/></g></svg>