<svg height="512" viewBox="0 0 512 512" width="512" xmlns="http://www.w3.org/2000/svg" xmlns:xlink="http://www.w3.org/1999/xlink"><linearGradient id="a" gradientUnits="userSpaceOnUse" x1="-3.103" x2="522.756" y1="515.103" y2="-10.756" data-name="New Gradient Swatch 1"><stop offset="0" stop-color="#003f8a"/><stop offset=".518" stop-color="#00d7df"/><stop offset="1" stop-color="#006df0"/></linearGradient><linearGradient id="b" x1="-23.103" x2="502.756" xlink:href="#a" y1="495.103" y2="-30.756"/><linearGradient id="c" x1="2.897" x2="528.756" xlink:href="#a" y1="521.103" y2="-4.756"/><linearGradient id="d" x1="-79.103" x2="446.756" xlink:href="#a" y1="439.103" y2="-86.756"/><g><path d="m476 80h-127.04a96.011 96.011 0 0 0 -185.92 0h-127.04a28.031 28.031 0 0 0 -28 28v296a28.031 28.031 0 0 0 28 28h154.56l-5.34 32h-33.22a8 8 0 0 0 -8 8v16h-32a8 8 0 0 0 0 16h288a8 8 0 0 0 0-16h-32v-16a8 8 0 0 0 -8-8h-33.22l-5.34-32h154.56a28.031 28.031 0 0 0 28-28v-296a28.031 28.031 0 0 0 -28-28zm-220-56a80.013 80.013 0 0 1 36.36 151.28 7.984 7.984 0 0 0 -4.36 7.12v25.6h-8v-80a8 8 0 0 0 -16 0v80h-16v-80a8 8 0 0 0 -16 0v80h-8v-25.6a7.984 7.984 0 0 0 -4.36-7.12 80.013 80.013 0 0 1 36.36-151.28zm-20 256a12.01 12.01 0 0 1 -12-12v-20h64v20a12.01 12.01 0 0 1 -12 12zm28 16a8 8 0 0 1 -16 0zm-56-64v-8h96v8zm144 248v8h-192v-8zm-150.56-16 5.34-32h98.44l5.34 32zm286.56-60a12.01 12.01 0 0 1 -12 12h-440a12.01 12.01 0 0 1 -12-12v-20h464zm0-36h-464v-260a12.01 12.01 0 0 1 12-12h124.34c-.22 2.64-.34 5.31-.34 8a95.6 95.6 0 0 0 48 83.15v20.85h-8a8 8 0 0 0 -8 8v24a8 8 0 0 0 8 8h8v20a28.043 28.043 0 0 0 24 27.71v.29a24 24 0 0 0 48 0v-.29a28.043 28.043 0 0 0 24-27.71v-20h8a8 8 0 0 0 8-8v-24a8 8 0 0 0 -8-8h-8v-20.85a95.6 95.6 0 0 0 48-83.15c0-2.69-.12-5.36-.34-8h124.34a12.01 12.01 0 0 1 12 12z" fill="url(#a)"/><path d="m96 392h-48a8 8 0 0 0 0 16h48a8 8 0 0 0 0-16z" fill="url(#b)"/><path d="m128 392h-8a8 8 0 0 0 0 16h8a8 8 0 0 0 0-16z" fill="url(#c)"/><path d="m224 112h64a8 8 0 0 0 0-16h-64a8 8 0 0 0 0 16z" fill="url(#d)"/></g></svg>