<svg height="512" viewBox="0 0 512 512" width="512" xmlns="http://www.w3.org/2000/svg" xmlns:xlink="http://www.w3.org/1999/xlink"><linearGradient id="a" gradientUnits="userSpaceOnUse" x1="17.654" x2="508.044" y1="494.346" y2="3.956" data-name="New Gradient Swatch 1"><stop offset="0" stop-color="#003f8a"/><stop offset=".518" stop-color="#00d7df"/><stop offset="1" stop-color="#006df0"/></linearGradient><linearGradient id="b" x1="-172.346" x2="318.044" xlink:href="#a" y1="304.346" y2="-186.044"/><linearGradient id="c" x1="-156.346" x2="334.044" xlink:href="#a" y1="320.346" y2="-170.044"/><linearGradient id="d" x1="-140.346" x2="350.044" xlink:href="#a" y1="336.346" y2="-154.044"/><linearGradient id="e" x1="175.654" x2="666.044" xlink:href="#a" y1="652.346" y2="161.956"/><linearGradient id="f" x1="207.654" x2="698.044" xlink:href="#a" y1="684.346" y2="193.956"/><linearGradient id="g" x1="25.654" x2="516.044" xlink:href="#a" y1="502.346" y2="11.956"/><g><path d="m476 56h-440a28.031 28.031 0 0 0 -28 28v344a28.031 28.031 0 0 0 28 28h440a28.031 28.031 0 0 0 28-28v-344a28.031 28.031 0 0 0 -28-28zm12 372a12.01 12.01 0 0 1 -12 12h-440a12.01 12.01 0 0 1 -12-12v-308h464zm0-324h-464v-20a12.01 12.01 0 0 1 12-12h440a12.01 12.01 0 0 1 12 12z" fill="url(#a)"/><path d="m40 96h8a8 8 0 0 0 0-16h-8a8 8 0 0 0 0 16z" fill="url(#b)"/><path d="m72 96h8a8 8 0 0 0 0-16h-8a8 8 0 0 0 0 16z" fill="url(#c)"/><path d="m104 96h8a8 8 0 0 0 0-16h-8a8 8 0 0 0 0 16z" fill="url(#d)"/><path d="m440 416h-72a8 8 0 0 0 0 16h72a8 8 0 0 0 0-16z" fill="url(#e)"/><path d="m472 416h-8a8 8 0 0 0 0 16h8a8 8 0 0 0 0-16z" fill="url(#f)"/><path d="m256 144a128 128 0 1 0 128 128 128.144 128.144 0 0 0 -128-128zm-36.62 22.15a106.409 106.409 0 0 0 -10.23 17.61c-10.16 21.79-16.12 50.04-17.02 80.24h-47.84a112.25 112.25 0 0 1 75.09-97.85zm-75.09 113.85h47.84c.9 30.2 6.86 58.45 17.02 80.24a106.409 106.409 0 0 0 10.23 17.61 112.25 112.25 0 0 1 -75.09-97.85zm103.71 102.24c-8.82-3.85-17.39-13.86-24.35-28.77-9.21-19.75-14.63-45.6-15.51-73.47h39.86zm0-118.24h-39.86c.88-27.87 6.3-53.72 15.51-73.47 6.96-14.91 15.53-24.93 24.35-28.77zm119.71 0h-47.84c-.9-30.2-6.86-58.45-17.02-80.24a106.409 106.409 0 0 0 -10.23-17.61 112.25 112.25 0 0 1 75.09 97.85zm-103.71-102.24c8.82 3.84 17.39 13.86 24.35 28.77 9.21 19.75 14.63 45.6 15.51 73.47h-39.86zm0 220.48v-102.24h39.86c-.88 27.87-6.3 53.72-15.51 73.47-6.96 14.91-15.53 24.92-24.35 28.77zm28.62-4.39a106.409 106.409 0 0 0 10.23-17.61c10.16-21.79 16.12-50.04 17.02-80.24h47.84a112.25 112.25 0 0 1 -75.09 97.85z" fill="url(#g)"/></g></svg>