<svg height="512" viewBox="0 0 512 512" width="512" xmlns="http://www.w3.org/2000/svg" xmlns:xlink="http://www.w3.org/1999/xlink"><linearGradient id="a" gradientUnits="userSpaceOnUse" x1="19.817" x2="520.638" y1="496.183" y2="-4.639" data-name="New Gradient Swatch 1"><stop offset="0" stop-color="#003f8a"/><stop offset=".518" stop-color="#00d7df"/><stop offset="1" stop-color="#006df0"/></linearGradient><path d="m504 216a7.981 7.981 0 0 0 -5.25-7.51l-99.51-36.49 99.51-36.49a8 8 0 0 0 0-15.02l-240-88a8 8 0 0 0 -5.5 0l-240 88a8 8 0 0 0 0 15.02l99.51 36.49-99.51 36.49a8 8 0 0 0 0 15.02l99.51 36.49-99.51 36.49a8 8 0 0 0 0 15.02l99.51 36.49-99.51 36.49a8 8 0 0 0 0 15.02l240 88a7.962 7.962 0 0 0 5.5 0l240-88a8 8 0 0 0 0-15.02l-99.51-36.49 99.51-36.49a8 8 0 0 0 0-15.02l-99.51-36.49 99.51-36.49a7.981 7.981 0 0 0 5.25-7.51zm-464.76-88 216.76-79.48 216.76 79.48-216.76 79.48-117.35-43.03zm433.52 264-216.76 79.48-216.76-79.48 96.76-35.48 117.25 42.99a7.962 7.962 0 0 0 5.5 0l117.25-42.99zm0-88-216.76 79.48-216.76-79.48 96.76-35.48 117.25 42.99a7.962 7.962 0 0 0 5.5 0l117.25-42.99zm-216.76-8.52-216.76-79.48 96.76-35.48 117.25 42.99a7.962 7.962 0 0 0 5.5 0l117.25-42.99 96.76 35.48z" fill="url(#a)"/></svg>