<svg height="512" viewBox="0 0 512 512" width="512" xmlns="http://www.w3.org/2000/svg" xmlns:xlink="http://www.w3.org/1999/xlink"><linearGradient id="a" gradientUnits="userSpaceOnUse" x1="13.122" x2="520.174" y1="498.878" y2="-8.174" data-name="New Gradient Swatch 1"><stop offset="0" stop-color="#003f8a"/><stop offset=".518" stop-color="#00d7df"/><stop offset="1" stop-color="#006df0"/></linearGradient><linearGradient id="b" x1="-96.878" x2="410.174" xlink:href="#a" y1="388.878" y2="-118.174"/><linearGradient id="c" x1="-4.878" x2="502.174" xlink:href="#a" y1="480.878" y2="-26.174"/><linearGradient id="d" x1="59.122" x2="566.174" xlink:href="#a" y1="544.878" y2="37.826"/><g><path d="m496 72a8 8 0 0 0 8-8v-48a8 8 0 0 0 -8-8h-48a8 8 0 0 0 -8 8v16h-368v-16a8 8 0 0 0 -8-8h-48a8 8 0 0 0 -8 8v48a8 8 0 0 0 8 8h16v368h-16a8 8 0 0 0 -8 8v48a8 8 0 0 0 8 8h48a8 8 0 0 0 8-8v-16h368v16a8 8 0 0 0 8 8h48a8 8 0 0 0 8-8v-48a8 8 0 0 0 -8-8h-16v-368zm-472-16v-32h32v32zm32 432h-32v-32h32zm384-40v16h-368v-16a8 8 0 0 0 -8-8h-16v-368h16a8 8 0 0 0 8-8v-16h368v16a8 8 0 0 0 8 8h16v368h-16a8 8 0 0 0 -8 8zm48 8v32h-32v-32zm-32-400v-32h32v32z" fill="url(#a)"/><path d="m240 80h-152a8 8 0 0 0 -8 8v80a8 8 0 0 0 8 8h152a8 8 0 0 0 8-8v-80a8 8 0 0 0 -8-8zm-8 80h-136v-64h136z" fill="url(#b)"/><path d="m240 192h-152a8 8 0 0 0 -8 8v224a8 8 0 0 0 8 8h152a8 8 0 0 0 8-8v-224a8 8 0 0 0 -8-8zm-8 224h-136v-208h136z" fill="url(#c)"/><path d="m424 80h-152a8 8 0 0 0 -8 8v336a8 8 0 0 0 8 8h152a8 8 0 0 0 8-8v-336a8 8 0 0 0 -8-8zm-8 336h-136v-320h136z" fill="url(#d)"/></g></svg>