<svg height="512" viewBox="0 0 512 512" width="512" xmlns="http://www.w3.org/2000/svg" xmlns:xlink="http://www.w3.org/1999/xlink"><linearGradient id="a" gradientUnits="userSpaceOnUse" x1="30.667" x2="527.053" y1="527.465" y2="31.079" data-name="New Gradient Swatch 1"><stop offset="0" stop-color="#003f8a"/><stop offset=".518" stop-color="#00d7df"/><stop offset="1" stop-color="#006df0"/></linearGradient><linearGradient id="b" x1="11.601" x2="507.987" xlink:href="#a" y1="508.399" y2="12.013"/><linearGradient id="c" x1="37.601" x2="533.987" xlink:href="#a" y1="534.399" y2="38.013"/><linearGradient id="d" x1="-44.401" x2="451.985" xlink:href="#a" y1="452.397" y2="-43.989"/><linearGradient id="e" x1="19.601" x2="515.987" xlink:href="#a" y1="516.399" y2="20.013"/><linearGradient id="f" x1="43.601" x2="539.987" xlink:href="#a" y1="540.399" y2="44.013"/><linearGradient id="g" x1="55.601" x2="551.987" xlink:href="#a" y1="552.399" y2="56.013"/><linearGradient id="h" x1="67.601" x2="563.987" xlink:href="#a" y1="564.399" y2="68.013"/><g><path d="m496 424h-32v-260a28.031 28.031 0 0 0 -28-28h-28v-96a8 8 0 0 0 -8-8h-288a8 8 0 0 0 -8 8v96h-28a28.031 28.031 0 0 0 -28 28v260h-32a8 8 0 0 0 -8 8v28a28.031 28.031 0 0 0 28 28h440a28.031 28.031 0 0 0 28-28v-28a8 8 0 0 0 -8-8zm-88-248h16v224h-16zm-288-128h272v352h-272zm-56 116a12.01 12.01 0 0 1 12-12h28v8h-24a8 8 0 0 0 -8 8v240a8 8 0 0 0 8 8h352a8 8 0 0 0 8-8v-240a8 8 0 0 0 -8-8h-24v-8h28a12.01 12.01 0 0 1 12 12v260h-384zm40 12v224h-16v-224zm184 264v8h-64v-8zm200 20a12.01 12.01 0 0 1 -12 12h-440a12.01 12.01 0 0 1 -12-12v-20h184v16a8 8 0 0 0 8 8h80a8 8 0 0 0 8-8v-16h184z" fill="url(#a)"/><path d="m88 448h-48a8 8 0 0 0 0 16h48a8 8 0 0 0 0-16z" fill="url(#b)"/><path d="m120 448h-8a8 8 0 0 0 0 16h8a8 8 0 0 0 0-16z" fill="url(#c)"/><path d="m202.585 221.884a8.009 8.009 0 0 0 1.26.949 87.808 87.808 0 0 0 104.332-.017 7.98 7.98 0 0 0 1.206-.908 88 88 0 1 0 -106.8-.024zm13.618-9.92a40 40 0 0 1 68.083-24.244 39.654 39.654 0 0 1 11.514 24.243 71.812 71.812 0 0 1 -79.595 0zm39.797-59.964a16 16 0 1 1 16-16 16.019 16.019 0 0 1 -16 16zm0-72a71.952 71.952 0 0 1 53.668 119.931 56.154 56.154 0 0 0 -36.189-37.147 32 32 0 1 0 -34.933.016 56.23 56.23 0 0 0 -36.192 37.156 71.952 71.952 0 0 1 53.646-119.956z" fill="url(#d)"/><path d="m176 304h160a8 8 0 0 0 8-8v-32a8 8 0 0 0 -8-8h-160a8 8 0 0 0 -8 8v32a8 8 0 0 0 8 8zm8-32h144v16h-144z" fill="url(#e)"/><path d="m232 320a8 8 0 0 0 0 16h48a8 8 0 0 0 0-16z" fill="url(#f)"/><path d="m176 360h160a8 8 0 0 0 0-16h-160a8 8 0 0 0 0 16z" fill="url(#g)"/><path d="m304 368h-96a8 8 0 0 0 0 16h96a8 8 0 0 0 0-16z" fill="url(#h)"/></g></svg>