<svg height="512" viewBox="0 0 512 512" width="512" xmlns="http://www.w3.org/2000/svg" xmlns:xlink="http://www.w3.org/1999/xlink"><linearGradient id="a" gradientUnits="userSpaceOnUse" x1="5.297" x2="526.953" y1="506.703" y2="-14.953" data-name="New Gradient Swatch 1"><stop offset="0" stop-color="#003f8a"/><stop offset=".518" stop-color="#00d7df"/><stop offset="1" stop-color="#006df0"/></linearGradient><g fill="url(#a)"><path d="m496 216h-44.02a200.568 200.568 0 0 0 -29.12-70.29l31.13-31.13a8 8 0 0 0 0-11.31l-45.26-45.26a8 8 0 0 0 -11.31 0l-31.13 31.13a200.568 200.568 0 0 0 -70.29-29.12v-44.02a8 8 0 0 0 -8-8h-64a8 8 0 0 0 -8 8v44.02a200.568 200.568 0 0 0 -70.29 29.12l-31.13-31.13a8 8 0 0 0 -11.31 0l-45.26 45.26a8 8 0 0 0 0 11.31l31.13 31.13a200.568 200.568 0 0 0 -29.12 70.29h-44.02a8 8 0 0 0 -8 8v64a8 8 0 0 0 8 8h44.02a200.568 200.568 0 0 0 29.12 70.29l-31.13 31.13a8 8 0 0 0 0 11.31l45.26 45.26a8 8 0 0 0 11.31 0l31.13-31.13a200.568 200.568 0 0 0 70.29 29.12v44.02a8 8 0 0 0 8 8h64a8 8 0 0 0 8-8v-44.02a200.568 200.568 0 0 0 70.29-29.12l31.13 31.13a8 8 0 0 0 11.31 0l45.26-45.26a8 8 0 0 0 0-11.31l-31.13-31.13a200.568 200.568 0 0 0 29.12-70.29h44.02a8 8 0 0 0 8-8v-64a8 8 0 0 0 -8-8zm-8 64h-42.67a8 8 0 0 0 -7.89 6.68 184.285 184.285 0 0 1 -31.45 75.93 7.976 7.976 0 0 0 .86 10.29l30.17 30.18-33.94 33.94-30.18-30.17a7.976 7.976 0 0 0 -10.29-.86 184.285 184.285 0 0 1 -75.93 31.45 8 8 0 0 0 -6.68 7.89v42.67h-48v-42.67a8 8 0 0 0 -6.68-7.89 184.285 184.285 0 0 1 -75.93-31.45 7.976 7.976 0 0 0 -10.29.86l-30.18 30.17-33.94-33.94 30.17-30.18a7.976 7.976 0 0 0 .86-10.29 184.285 184.285 0 0 1 -31.45-75.93 8 8 0 0 0 -7.89-6.68h-42.67v-48h42.67a8 8 0 0 0 7.89-6.68 184.285 184.285 0 0 1 31.45-75.93 7.976 7.976 0 0 0 -.86-10.29l-30.17-30.18 33.94-33.94 30.18 30.17a7.976 7.976 0 0 0 10.29.86 184.285 184.285 0 0 1 75.93-31.45 8 8 0 0 0 6.68-7.89v-42.67h48v42.67a8 8 0 0 0 6.68 7.89 184.285 184.285 0 0 1 75.93 31.45 7.976 7.976 0 0 0 10.29-.86l30.18-30.17 33.94 33.94-30.17 30.18a7.976 7.976 0 0 0 -.86 10.29 184.285 184.285 0 0 1 31.45 75.93 8 8 0 0 0 7.89 6.68h42.67z"/><path d="m256 104c-83.81 0-152 68.19-152 152s68.19 152 152 152 152-68.19 152-152-68.19-152-152-152zm16 216v71.05a135.212 135.212 0 0 1 -32 0v-71.05a8.033 8.033 0 0 0 -3.56-6.66l-44.44-29.62v-71.87l24-19.2v70.57a8.006 8.006 0 0 0 3.61 6.69l32 21a8 8 0 0 0 8.78 0l32-21a8.006 8.006 0 0 0 3.61-6.69v-70.57l24 19.2v71.87l-44.44 29.62a8.033 8.033 0 0 0 -3.56 6.66zm16 68.19v-63.91l44.44-29.62a8.033 8.033 0 0 0 3.56-6.66v-80a8 8 0 0 0 -3-6.25l-40-32a8 8 0 0 0 -13 6.25v82.9l-24 15.75-24-15.75v-82.9a8 8 0 0 0 -13-6.25l-40 32a8 8 0 0 0 -3 6.25v80a8.033 8.033 0 0 0 3.56 6.66l44.44 29.62v63.91c-59.6-14.43-104-68.22-104-132.19 0-74.99 61.01-136 136-136s136 61.01 136 136c0 63.97-44.4 117.76-104 132.19z"/></g></svg>