<svg height="512" viewBox="0 0 512 512" width="512" xmlns="http://www.w3.org/2000/svg" xmlns:xlink="http://www.w3.org/1999/xlink"><linearGradient id="a" gradientUnits="userSpaceOnUse" x1="3.144" x2="505.552" y1="492.856" y2="-9.552" data-name="New Gradient Swatch 1"><stop offset="0" stop-color="#003f8a"/><stop offset=".518" stop-color="#00d7df"/><stop offset="1" stop-color="#006df0"/></linearGradient><linearGradient id="b" x1="-12.856" x2="489.552" xlink:href="#a" y1="476.856" y2="-25.552"/><linearGradient id="c" x1="13.144" x2="515.552" xlink:href="#a" y1="502.856" y2=".448"/><linearGradient id="d" x1="-178.856" x2="323.552" xlink:href="#a" y1="310.856" y2="-191.552"/><linearGradient id="e" x1="-162.856" x2="339.552" xlink:href="#a" y1="326.856" y2="-175.552"/><linearGradient id="f" x1="-146.856" x2="355.552" xlink:href="#a" y1="342.856" y2="-159.552"/><g><path d="m476 72h-12v-28a28.031 28.031 0 0 0 -28-28h-360a28.031 28.031 0 0 0 -28 28v28h-12a28.031 28.031 0 0 0 -28 28v296a28.031 28.031 0 0 0 28 28h154.56l-5.34 32h-33.22a8 8 0 0 0 -8 8v16h-32a8 8 0 0 0 0 16h288a8 8 0 0 0 0-16h-32v-16a8 8 0 0 0 -8-8h-33.22l-5.34-32h154.56a28.031 28.031 0 0 0 28-28v-296a28.031 28.031 0 0 0 -28-28zm-412-28a12.01 12.01 0 0 1 12-12h360a12.01 12.01 0 0 1 12 12v20h-384zm0 36h384v212a12.01 12.01 0 0 1 -12 12h-360a12.01 12.01 0 0 1 -12-12zm288 392v8h-192v-8zm-150.56-16 5.34-32h98.44l5.34 32zm286.56-60a12.01 12.01 0 0 1 -12 12h-440a12.01 12.01 0 0 1 -12-12v-20h464zm0-36h-464v-260a12.01 12.01 0 0 1 12-12h12v204a28.031 28.031 0 0 0 28 28h360a28.031 28.031 0 0 0 28-28v-204h12a12.01 12.01 0 0 1 12 12z" fill="url(#a)"/><path d="m96 384h-48a8 8 0 0 0 0 16h48a8 8 0 0 0 0-16z" fill="url(#b)"/><path d="m128 384h-8a8 8 0 0 0 0 16h8a8 8 0 0 0 0-16z" fill="url(#c)"/><path d="m80 56h8a8 8 0 0 0 0-16h-8a8 8 0 0 0 0 16z" fill="url(#d)"/><path d="m112 56h8a8 8 0 0 0 0-16h-8a8 8 0 0 0 0 16z" fill="url(#e)"/><path d="m144 56h8a8 8 0 0 0 0-16h-8a8 8 0 0 0 0 16z" fill="url(#f)"/></g></svg>