<svg height="512" viewBox="0 0 512 512" width="512" xmlns="http://www.w3.org/2000/svg" xmlns:xlink="http://www.w3.org/1999/xlink"><linearGradient id="a" gradientUnits="userSpaceOnUse" x1="47.285" x2="554.327" y1="532.715" y2="25.673" data-name="New Gradient Swatch 1"><stop offset="0" stop-color="#003f8a"/><stop offset=".518" stop-color="#00d7df"/><stop offset="1" stop-color="#006df0"/></linearGradient><path d="m488 352h-56v-96a8 8 0 0 0 -8-8h-160v-88h32a8 8 0 0 0 0-16h-8v-8h40a16.021 16.021 0 0 0 16-16v-96a16.021 16.021 0 0 0 -16-16h-144a16.021 16.021 0 0 0 -16 16v96a16.021 16.021 0 0 0 16 16h40v8h-8a8 8 0 0 0 0 16h32v88h-160a8 8 0 0 0 -8 8v96h-56a16.021 16.021 0 0 0 -16 16v96a16.021 16.021 0 0 0 16 16h40v8h-8a8 8 0 0 0 0 16h80a8 8 0 0 0 0-16h-8v-8h40a16.021 16.021 0 0 0 16-16v-96a16.021 16.021 0 0 0 -16-16h-72v-88h320v88h-72a16.021 16.021 0 0 0 -16 16v96a16.021 16.021 0 0 0 16 16h40v8h-8a8 8 0 0 0 0 16h80a8 8 0 0 0 0-16h-8v-8h40a16.021 16.021 0 0 0 16-16v-96a16.021 16.021 0 0 0 -16-16zm-376 136h-32v-8h32zm56-120 .01 96h-144.01v-96zm16-248v-96h144l.01 96zm56 24v-8h32v8zm192 344h-32v-8h32zm56-24h-144v-96h144l.01 96z" fill="url(#a)"/></svg>