<svg height="512" viewBox="0 0 512 512" width="512" xmlns="http://www.w3.org/2000/svg" xmlns:xlink="http://www.w3.org/1999/xlink"><linearGradient id="a" gradientUnits="userSpaceOnUse" x1="4.559" x2="505.351" y1="507.441" y2="6.649" data-name="New Gradient Swatch 1"><stop offset="0" stop-color="#003f8a"/><stop offset=".518" stop-color="#00d7df"/><stop offset="1" stop-color="#006df0"/></linearGradient><linearGradient id="b" x1="-185.441" x2="315.351" xlink:href="#a" y1="317.441" y2="-183.351"/><linearGradient id="c" x1="-169.441" x2="331.351" xlink:href="#a" y1="333.441" y2="-167.351"/><linearGradient id="d" x1="-153.441" x2="347.351" xlink:href="#a" y1="349.441" y2="-151.351"/><linearGradient id="e" x1="168.559" x2="669.351" xlink:href="#a" y1="671.441" y2="170.649"/><linearGradient id="f" x1="194.559" x2="695.351" xlink:href="#a" y1="697.441" y2="196.649"/><linearGradient id="g" x1="8.559" x2="509.351" xlink:href="#a" y1="511.441" y2="10.649"/><linearGradient id="h" x1="32.559" x2="533.351" xlink:href="#a" y1="535.441" y2="34.649"/><linearGradient id="i" x1="-3.441" x2="497.351" xlink:href="#a" y1="499.441" y2="-1.351"/><g><path d="m476 56h-440a28.031 28.031 0 0 0 -28 28v344a28.031 28.031 0 0 0 28 28h440a28.031 28.031 0 0 0 28-28v-344a28.031 28.031 0 0 0 -28-28zm12 372a12.01 12.01 0 0 1 -12 12h-440a12.01 12.01 0 0 1 -12-12v-308h464zm0-324h-464v-20a12.01 12.01 0 0 1 12-12h440a12.01 12.01 0 0 1 12 12z" fill="url(#a)"/><path d="m40 96h8a8 8 0 0 0 0-16h-8a8 8 0 0 0 0 16z" fill="url(#b)"/><path d="m72 96h8a8 8 0 0 0 0-16h-8a8 8 0 0 0 0 16z" fill="url(#c)"/><path d="m104 96h8a8 8 0 0 0 0-16h-8a8 8 0 0 0 0 16z" fill="url(#d)"/><path d="m440 416h-48a8 8 0 0 0 0 16h48a8 8 0 0 0 0-16z" fill="url(#e)"/><path d="m472 416h-8a8 8 0 0 0 0 16h8a8 8 0 0 0 0-16z" fill="url(#f)"/><path d="m416 152h-320a8 8 0 0 0 -8 8v208a8 8 0 0 0 8 8h32v40a8 8 0 0 0 13.66 5.66l45.65-45.66h228.69a8 8 0 0 0 8-8v-208a8 8 0 0 0 -8-8zm-8 208h-224a8.008 8.008 0 0 0 -5.66 2.34l-34.34 34.35v-28.69a8 8 0 0 0 -8-8h-32v-192h304z" fill="url(#g)"/><path d="m240 336h32a8 8 0 0 0 8-8v-32a8 8 0 0 0 -8-8h-32a8 8 0 0 0 -8 8v32a8 8 0 0 0 8 8zm8-32h16v16h-16z" fill="url(#h)"/><path d="m240 280h32a8 8 0 0 0 8-8v-64a8 8 0 0 0 -8-8h-32a8 8 0 0 0 -8 8v64a8 8 0 0 0 8 8zm8-64h16v48h-16z" fill="url(#i)"/></g></svg>