<svg height="512" viewBox="0 0 512 512" width="512" xmlns="http://www.w3.org/2000/svg" xmlns:xlink="http://www.w3.org/1999/xlink"><linearGradient id="a" gradientUnits="userSpaceOnUse" x1="7.438" x2="509.905" y1="504.562" y2="2.095" data-name="New Gradient Swatch 1"><stop offset="0" stop-color="#003f8a"/><stop offset=".518" stop-color="#00d7df"/><stop offset="1" stop-color="#006df0"/></linearGradient><linearGradient id="c" x1="-72.562" x2="429.905" xlink:href="#a" y1="424.562" y2="-77.905"/><g><path d="m496 72a8 8 0 0 0 8-8v-48a8 8 0 0 0 -8-8h-48a8 8 0 0 0 -8 8v16h-368v-16a8 8 0 0 0 -8-8h-48a8 8 0 0 0 -8 8v48a8 8 0 0 0 8 8h16v368h-16a8 8 0 0 0 -8 8v48a8 8 0 0 0 8 8h48a8 8 0 0 0 8-8v-16h368v16a8 8 0 0 0 8 8h48a8 8 0 0 0 8-8v-48a8 8 0 0 0 -8-8h-16v-368zm-472-16v-32h32v32zm32 432h-32v-32h32zm384-40v16h-368v-16a8 8 0 0 0 -8-8h-16v-368h16a8 8 0 0 0 8-8v-16h368v16a8 8 0 0 0 8 8h16v368h-16a8 8 0 0 0 -8 8zm48 8v32h-32v-32zm-32-400v-32h32v32z" fill="url(#a)"/><path d="m440 112h-368a8 8 0 0 0 -8 8v272a8 8 0 0 0 8 8h368a8 8 0 0 0 8-8v-272a8 8 0 0 0 -8-8zm-360 272v-9.03l88-113.89 94.98 122.92zm352 0h-148.8l-43.41-56.18 107.21-138.74 85 110zm0-111.09-78.67-101.8a8 8 0 0 0 -12.66 0l-110.99 143.63-55.35-71.63a8 8 0 0 0 -12.66 0l-81.67 105.69v-220.8h352z" fill="url(#a)"/><path d="m168 224a40 40 0 1 0 -40-40 40.045 40.045 0 0 0 40 40zm0-64a24 24 0 1 1 -24 24 24.028 24.028 0 0 1 24-24z" fill="url(#c)"/></g></svg>