<svg height="512" viewBox="0 0 512 512" width="512" xmlns="http://www.w3.org/2000/svg" xmlns:xlink="http://www.w3.org/1999/xlink"><linearGradient id="a" gradientUnits="userSpaceOnUse" x1="-5.387" x2="517.539" y1="493.389" y2="-29.537" data-name="New Gradient Swatch 1"><stop offset="0" stop-color="#003f8a"/><stop offset=".518" stop-color="#00d7df"/><stop offset="1" stop-color="#006df0"/></linearGradient><linearGradient id="b" x1="-5.388" x2="517.538" xlink:href="#a" y1="493.388" y2="-29.538"/><g><path d="m408 8h-304a8 8 0 0 0 -8 8v480a8 8 0 0 0 8 8h256a8.008 8.008 0 0 0 5.66-2.34l48-48a8.008 8.008 0 0 0 2.34-5.66v-432a8 8 0 0 0 -8-8zm-40 468.69v-20.69h20.69zm32-36.69h-40a8 8 0 0 0 -8 8v40h-240v-464h288z" fill="url(#a)"/><path d="m368 336a8 8 0 0 0 8-8v-48a8 8 0 0 0 -8-8h-48a8 8 0 0 0 -8 8v16h-24v-16a8 8 0 0 0 -8-8h-16v-40h16a8 8 0 0 0 8-8v-16h24a8.043 8.043 0 0 0 1.335-.12 24 24 0 1 0 0-15.76 8.043 8.043 0 0 0 -1.335-.12h-24v-16a8 8 0 0 0 -8-8h-16v-32h56a8 8 0 0 0 8-8v-48a8 8 0 0 0 -8-8h-128a8 8 0 0 0 -8 8v48a8 8 0 0 0 8 8h56v32h-16a8 8 0 0 0 -8 8v48a8 8 0 0 0 8 8h16v40h-16a8 8 0 0 0 -8 8v16h-24v-16a8 8 0 0 0 -8-8h-48a8 8 0 0 0 -8 8v48a8 8 0 0 0 8 8h48a8 8 0 0 0 8-8v-16h24v16a8 8 0 0 0 8 8h16v32h-16a8 8 0 0 0 -8 8v16h-24a8.043 8.043 0 0 0 -1.335.12 24 24 0 1 0 0 15.76 8.043 8.043 0 0 0 1.335.12h24v16a8 8 0 0 0 8 8h48a8 8 0 0 0 8-8v-48a8 8 0 0 0 -8-8h-16v-32h16a8 8 0 0 0 8-8v-16h24v16a8 8 0 0 0 8 8zm-40-48h32v32h-32zm8-96a8 8 0 1 1 -8 8 8.009 8.009 0 0 1 8-8zm-136-104h112v32h-112zm40 96h32v32h-32zm-56 136h-32v-32h32zm-8 88a8 8 0 1 1 8-8 8.009 8.009 0 0 1 -8 8zm96 8h-32v-32h32zm0-96h-32v-32h32z" fill="url(#b)"/></g></svg>