<svg height="512" viewBox="0 0 512 512" width="512" xmlns="http://www.w3.org/2000/svg" xmlns:xlink="http://www.w3.org/1999/xlink"><linearGradient id="a" gradientUnits="userSpaceOnUse" x1="-2.277" x2="508.945" y1="514.277" y2="3.055" data-name="New Gradient Swatch 1"><stop offset="0" stop-color="#003f8a"/><stop offset=".518" stop-color="#00d7df"/><stop offset="1" stop-color="#006df0"/></linearGradient><linearGradient id="b" x1="-192.277" x2="318.945" xlink:href="#a" y1="324.277" y2="-186.945"/><linearGradient id="c" x1="-176.277" x2="334.945" xlink:href="#a" y1="340.277" y2="-170.945"/><linearGradient id="d" x1="-160.277" x2="350.945" xlink:href="#a" y1="356.277" y2="-154.945"/><linearGradient id="e" x1="155.723" x2="666.945" xlink:href="#a" y1="672.277" y2="161.055"/><linearGradient id="f" x1="187.723" x2="698.945" xlink:href="#a" y1="704.277" y2="193.055"/><linearGradient id="g" x1="3.723" x2="514.945" xlink:href="#a" y1="520.277" y2="9.055"/><linearGradient id="h" x1="-118.277" x2="392.945" xlink:href="#a" y1="398.277" y2="-112.945"/><linearGradient id="i" x1="-58.277" x2="452.945" xlink:href="#a" y1="458.277" y2="-52.945"/><linearGradient id="j" x1="-102.277" x2="408.945" xlink:href="#a" y1="414.277" y2="-96.945"/><linearGradient id="k" x1="-86.277" x2="424.945" xlink:href="#a" y1="430.277" y2="-80.945"/><linearGradient id="l" x1="-70.277" x2="440.945" xlink:href="#a" y1="446.277" y2="-64.945"/><linearGradient id="m" x1="-54.277" x2="456.945" xlink:href="#a" y1="462.277" y2="-48.945"/><linearGradient id="n" x1="-38.277" x2="472.945" xlink:href="#a" y1="478.277" y2="-32.945"/><linearGradient id="o" x1="-32.277" x2="478.945" xlink:href="#a" y1="484.277" y2="-26.945"/><linearGradient id="p" x1="13.723" x2="524.945" xlink:href="#a" y1="530.277" y2="19.055"/><linearGradient id="q" x1="39.723" x2="550.945" xlink:href="#a" y1="556.277" y2="45.055"/><linearGradient id="r" x1="-18.277" x2="492.945" xlink:href="#a" y1="498.277" y2="-12.945"/><linearGradient id="s" x1="5.723" x2="516.945" xlink:href="#a" y1="522.277" y2="11.055"/><linearGradient id="t" x1="23.723" x2="534.945" xlink:href="#a" y1="540.277" y2="29.055"/><linearGradient id="u" x1="61.723" x2="572.945" xlink:href="#a" y1="578.277" y2="67.055"/><linearGradient id="v" x1="85.723" x2="596.945" xlink:href="#a" y1="602.277" y2="91.055"/><linearGradient id="w" x1="103.723" x2="614.945" xlink:href="#a" y1="620.277" y2="109.055"/><g><path d="m476 56h-440a28.031 28.031 0 0 0 -28 28v344a28.031 28.031 0 0 0 28 28h440a28.031 28.031 0 0 0 28-28v-344a28.031 28.031 0 0 0 -28-28zm12 372a12.01 12.01 0 0 1 -12 12h-440a12.01 12.01 0 0 1 -12-12v-308h464zm0-324h-464v-20a12.01 12.01 0 0 1 12-12h440a12.01 12.01 0 0 1 12 12z" fill="url(#a)"/><path d="m40 96h8a8 8 0 0 0 0-16h-8a8 8 0 0 0 0 16z" fill="url(#b)"/><path d="m72 96h8a8 8 0 0 0 0-16h-8a8 8 0 0 0 0 16z" fill="url(#c)"/><path d="m104 96h8a8 8 0 0 0 0-16h-8a8 8 0 0 0 0 16z" fill="url(#d)"/><path d="m440 416h-72a8 8 0 0 0 0 16h72a8 8 0 0 0 0-16z" fill="url(#e)"/><path d="m472 416h-8a8 8 0 0 0 0 16h8a8 8 0 0 0 0-16z" fill="url(#f)"/><path d="m464 136h-416a8 8 0 0 0 -8 8v248a8 8 0 0 0 8 8h416a8 8 0 0 0 8-8v-248a8 8 0 0 0 -8-8zm-328 248h-80v-232h80zm320 0h-304v-232h304z" fill="url(#g)"/><path d="m72 192h48a8 8 0 0 0 0-16h-48a8 8 0 0 0 0 16z" fill="url(#h)"/><path d="m192 192h48a8 8 0 0 0 0-16h-48a8 8 0 0 0 0 16z" fill="url(#i)"/><path d="m120 208h-48a8 8 0 0 0 0 16h48a8 8 0 0 0 0-16z" fill="url(#j)"/><path d="m120 240h-48a8 8 0 0 0 0 16h48a8 8 0 0 0 0-16z" fill="url(#k)"/><path d="m120 272h-48a8 8 0 0 0 0 16h48a8 8 0 0 0 0-16z" fill="url(#l)"/><path d="m120 304h-48a8 8 0 0 0 0 16h48a8 8 0 0 0 0-16z" fill="url(#m)"/><path d="m120 336h-48a8 8 0 0 0 0 16h48a8 8 0 0 0 0-16z" fill="url(#n)"/><path d="m264 192h8a8 8 0 0 0 0-16h-8a8 8 0 0 0 0 16z" fill="url(#o)"/><path d="m296 280a8 8 0 0 0 -8-8h-48a8 8 0 0 0 0 16h48a8 8 0 0 0 8-8z" fill="url(#p)"/><path d="m312 272a8 8 0 0 0 0 16h8a8 8 0 0 0 0-16z" fill="url(#q)"/><path d="m200 216a8 8 0 0 0 8 8h112a8 8 0 0 0 0-16h-112a8 8 0 0 0 -8 8z" fill="url(#r)"/><path d="m360 248a8 8 0 0 0 -8-8h-144a8 8 0 0 0 0 16h144a8 8 0 0 0 8-8z" fill="url(#s)"/><path d="m344 224h8a8 8 0 0 0 0-16h-8a8 8 0 0 0 0 16z" fill="url(#t)"/><path d="m264 312a8 8 0 0 0 8 8h112a8 8 0 0 0 0-16h-112a8 8 0 0 0 -8 8z" fill="url(#u)"/><path d="m416 336h-144a8 8 0 0 0 0 16h144a8 8 0 0 0 0-16z" fill="url(#v)"/><path d="m408 320h8a8 8 0 0 0 0-16h-8a8 8 0 0 0 0 16z" fill="url(#w)"/></g></svg>