<svg height="512" viewBox="0 0 512 512" width="512" xmlns="http://www.w3.org/2000/svg" xmlns:xlink="http://www.w3.org/1999/xlink"><linearGradient id="a" gradientUnits="userSpaceOnUse" x1="15.513" x2="501.01" y1="496.487" y2="10.99" data-name="New Gradient Swatch 1"><stop offset="0" stop-color="#003f8a"/><stop offset=".518" stop-color="#00d7df"/><stop offset="1" stop-color="#006df0"/></linearGradient><linearGradient id="b" x1="-174.487" x2="311.01" xlink:href="#a" y1="306.487" y2="-179.01"/><linearGradient id="c" x1="-158.487" x2="327.01" xlink:href="#a" y1="322.487" y2="-163.01"/><linearGradient id="d" x1="-142.487" x2="343.01" xlink:href="#a" y1="338.487" y2="-147.01"/><linearGradient id="e" x1="173.513" x2="659.01" xlink:href="#a" y1="654.487" y2="168.99"/><linearGradient id="f" x1="205.513" x2="691.01" xlink:href="#a" y1="686.487" y2="200.99"/><linearGradient id="g" x1="23.513" x2="509.01" xlink:href="#a" y1="504.487" y2="18.99"/><g><path d="m476 56h-440a28.031 28.031 0 0 0 -28 28v344a28.031 28.031 0 0 0 28 28h440a28.031 28.031 0 0 0 28-28v-344a28.031 28.031 0 0 0 -28-28zm12 372a12.01 12.01 0 0 1 -12 12h-440a12.01 12.01 0 0 1 -12-12v-308h464zm0-324h-464v-20a12.01 12.01 0 0 1 12-12h440a12.01 12.01 0 0 1 12 12z" fill="url(#a)"/><path d="m40 96h8a8 8 0 0 0 0-16h-8a8 8 0 0 0 0 16z" fill="url(#b)"/><path d="m72 96h8a8 8 0 0 0 0-16h-8a8 8 0 0 0 0 16z" fill="url(#c)"/><path d="m104 96h8a8 8 0 0 0 0-16h-8a8 8 0 0 0 0 16z" fill="url(#d)"/><path d="m440 416h-72a8 8 0 0 0 0 16h72a8 8 0 0 0 0-16z" fill="url(#e)"/><path d="m472 416h-8a8 8 0 0 0 0 16h8a8 8 0 0 0 0-16z" fill="url(#f)"/><g fill="url(#g)"><path d="m368 248h-35.69a78.673 78.673 0 0 0 -5.38-12.99l25.24-25.24a8 8 0 0 0 0-11.31l-22.63-22.63a8 8 0 0 0 -11.31 0l-25.24 25.24a78.673 78.673 0 0 0 -12.99-5.38v-35.69a8 8 0 0 0 -8-8h-32a8 8 0 0 0 -8 8v35.69a78.673 78.673 0 0 0 -12.99 5.38l-25.24-25.24a8 8 0 0 0 -11.31 0l-22.63 22.63a8 8 0 0 0 0 11.31l25.24 25.24a78.673 78.673 0 0 0 -5.38 12.99h-35.69a8 8 0 0 0 -8 8v32a8 8 0 0 0 8 8h35.69a78.673 78.673 0 0 0 5.38 12.99l-25.24 25.24a8 8 0 0 0 0 11.31l22.63 22.63a8 8 0 0 0 11.31 0l25.24-25.24a78.673 78.673 0 0 0 12.99 5.38v35.69a8 8 0 0 0 8 8h32a8 8 0 0 0 8-8v-35.69a78.673 78.673 0 0 0 12.99-5.38l25.24 25.24a8 8 0 0 0 11.31 0l22.63-22.63a8 8 0 0 0 0-11.31l-25.24-25.24a78.673 78.673 0 0 0 5.38-12.99h35.69a8 8 0 0 0 8-8v-32a8 8 0 0 0 -8-8zm-8 32h-33.81a8.01 8.01 0 0 0 -7.8 6.23 63.469 63.469 0 0 1 -8.21 19.82 8.018 8.018 0 0 0 1.11 9.93l23.91 23.9-11.32 11.32-23.9-23.91a8 8 0 0 0 -9.93-1.11 63.469 63.469 0 0 1 -19.82 8.21 8.01 8.01 0 0 0 -6.23 7.8v33.81h-16v-33.81a8.01 8.01 0 0 0 -6.23-7.8 63.469 63.469 0 0 1 -19.82-8.21 8 8 0 0 0 -9.93 1.11l-23.9 23.91-11.32-11.32 23.91-23.9a8.018 8.018 0 0 0 1.11-9.93 63.469 63.469 0 0 1 -8.21-19.82 8.01 8.01 0 0 0 -7.8-6.23h-33.81v-16h33.81a8.01 8.01 0 0 0 7.8-6.23 63.469 63.469 0 0 1 8.21-19.82 8.018 8.018 0 0 0 -1.11-9.93l-23.91-23.9 11.32-11.32 23.9 23.91a8.016 8.016 0 0 0 9.93 1.11 63.469 63.469 0 0 1 19.82-8.21 8.01 8.01 0 0 0 6.23-7.8v-33.81h16v33.81a8.01 8.01 0 0 0 6.23 7.8 63.469 63.469 0 0 1 19.82 8.21 8.016 8.016 0 0 0 9.93-1.11l23.9-23.91 11.32 11.32-23.91 23.9a8.018 8.018 0 0 0 -1.11 9.93 63.469 63.469 0 0 1 8.21 19.82 8.01 8.01 0 0 0 7.8 6.23h33.81z"/><path d="m256 232a40 40 0 1 0 40 40 40.045 40.045 0 0 0 -40-40zm0 64a24 24 0 1 1 24-24 24.028 24.028 0 0 1 -24 24z"/></g></g></svg>