<?xml version="1.0" encoding="UTF-8"?>
<svg xmlns="http://www.w3.org/2000/svg" xmlns:xlink="http://www.w3.org/1999/xlink" width="512" height="512" viewBox="0 0 512 512"><defs><linearGradient id="a" data-name="New Gradient Swatch 1" x1="-9.964" y1="489.964" x2="493.948" y2="-13.948" gradientUnits="userSpaceOnUse"><stop offset="0" stop-color="#003f8a"/><stop offset="0.518" stop-color="#00d7df"/><stop offset="1" stop-color="#006df0"/></linearGradient><linearGradient id="b" x1="-29.964" y1="469.964" x2="473.948" y2="-33.948" xlink:href="#a"/><linearGradient id="c" x1="-3.964" y1="495.964" x2="499.948" y2="-7.948" xlink:href="#a"/><linearGradient id="d" x1="-27.542" y1="472.386" x2="476.37" y2="-31.526" xlink:href="#a"/></defs><g><path d="M476,48H36A28.031,28.031,0,0,0,8,76V372a28.031,28.031,0,0,0,28,28H190.56l-5.34,32H152a8,8,0,0,0-8,8v16H112a8,8,0,0,0,0,16H400a8,8,0,0,0,0-16H368V440a8,8,0,0,0-8-8H326.78l-5.34-32H476a28.031,28.031,0,0,0,28-28V76A28.031,28.031,0,0,0,476,48ZM352,448v8H160v-8ZM201.44,432l5.34-32h98.44l5.34,32ZM488,372a12.01,12.01,0,0,1-12,12H36a12.01,12.01,0,0,1-12-12V352H488Zm0-36H24V76A12.01,12.01,0,0,1,36,64H476a12.01,12.01,0,0,1,12,12Z" fill="url(#a)"/><path d="M96,360H48a8,8,0,0,0,0,16H96a8,8,0,0,0,0-16Z" fill="url(#b)"/><path d="M128,360h-8a8,8,0,0,0,0,16h8a8,8,0,0,0,0-16Z" fill="url(#c)"/><path d="M208,320A120.151,120.151,0,0,0,327.727,208h19.329l13.789,27.578A8,8,0,0,0,368,240h40a8,8,0,0,0,7.155-11.578L400.944,200l14.211-28.422A8,8,0,0,0,408,160H368a8,8,0,0,0-7.155,4.422L347.056,192H327.727A120,120,0,1,0,208,320Zm164.944-96-8-16h22.112l8,16Zm0-48h22.112l-8,16H364.944ZM208,96a104.139,104.139,0,0,1,103.7,96H295.633a88,88,0,1,0,0,16H311.7A104,104,0,1,1,208,96Zm30.987,96a32,32,0,1,0,0,16h40.558a72,72,0,1,1,0-16ZM208,208h13.835a16,16,0,1,1,0-16H208a8,8,0,0,0,0,16Z" fill="url(#d)"/></g></svg>
