<svg height="512" viewBox="0 0 512 512" width="512" xmlns="http://www.w3.org/2000/svg" xmlns:xlink="http://www.w3.org/1999/xlink"><linearGradient id="a" gradientUnits="userSpaceOnUse" x1="2.581" x2="517.564" y1="509.419" y2="-5.564" data-name="New Gradient Swatch 1"><stop offset="0" stop-color="#003f8a"/><stop offset=".518" stop-color="#00d7df"/><stop offset="1" stop-color="#006df0"/></linearGradient><linearGradient id="b" x1="-51.419" x2="463.564" xlink:href="#a" y1="455.419" y2="-59.564"/><linearGradient id="c" x1="14.581" x2="529.564" xlink:href="#a" y1="521.419" y2="6.436"/><linearGradient id="d" x1="38.581" x2="553.564" xlink:href="#a" y1="545.419" y2="30.436"/><linearGradient id="e" x1="54.581" x2="569.564" xlink:href="#a" y1="561.419" y2="46.436"/><linearGradient id="f" x1="70.581" x2="585.564" xlink:href="#a" y1="577.419" y2="62.436"/><linearGradient id="g" x1="86.581" x2="601.564" xlink:href="#a" y1="593.419" y2="78.436"/><g><path d="m496 72a8 8 0 0 0 8-8v-48a8 8 0 0 0 -8-8h-48a8 8 0 0 0 -8 8v16h-368v-16a8 8 0 0 0 -8-8h-48a8 8 0 0 0 -8 8v48a8 8 0 0 0 8 8h16v368h-16a8 8 0 0 0 -8 8v48a8 8 0 0 0 8 8h48a8 8 0 0 0 8-8v-16h368v16a8 8 0 0 0 8 8h48a8 8 0 0 0 8-8v-48a8 8 0 0 0 -8-8h-16v-368zm-472-16v-32h32v32zm32 432h-32v-32h32zm384-40v16h-368v-16a8 8 0 0 0 -8-8h-16v-368h16a8 8 0 0 0 8-8v-16h368v16a8 8 0 0 0 8 8h16v368h-16a8 8 0 0 0 -8 8zm48 8v32h-32v-32zm-32-400v-32h32v32z" fill="url(#a)"/><path d="m328 80h-144a8 8 0 0 0 -8 8v56a8 8 0 0 0 8 8h24a8 8 0 0 0 8-8v-16h16v72h-24a8 8 0 0 0 -8 8v24a8 8 0 0 0 8 8h96a8 8 0 0 0 8-8v-24a8 8 0 0 0 -8-8h-24v-72h16v16a8 8 0 0 0 8 8h24a8 8 0 0 0 8-8v-56a8 8 0 0 0 -8-8zm-8 56h-8v-16a8 8 0 0 0 -8-8h-32a8 8 0 0 0 -8 8v88a8 8 0 0 0 8 8h24v8h-80v-8h24a8 8 0 0 0 8-8v-88a8 8 0 0 0 -8-8h-32a8 8 0 0 0 -8 8v16h-8v-40h128z" fill="url(#b)"/><path d="m136 304h240a8 8 0 0 0 8-8v-32a8 8 0 0 0 -8-8h-240a8 8 0 0 0 -8 8v32a8 8 0 0 0 8 8zm8-32h224v16h-224z" fill="url(#c)"/><path d="m184 320a8 8 0 0 0 0 16h144a8 8 0 0 0 0-16z" fill="url(#d)"/><path d="m416 352h-320a8 8 0 0 0 0 16h320a8 8 0 0 0 0-16z" fill="url(#e)"/><path d="m384 384h-256a8 8 0 0 0 0 16h256a8 8 0 0 0 0-16z" fill="url(#f)"/><path d="m320 416h-128a8 8 0 0 0 0 16h128a8 8 0 0 0 0-16z" fill="url(#g)"/></g></svg>