<?xml version="1.0" encoding="UTF-8"?>
<svg xmlns="http://www.w3.org/2000/svg" xmlns:xlink="http://www.w3.org/1999/xlink" width="512" height="512" viewBox="0 0 512 512"><defs><linearGradient id="a" data-name="New Gradient Swatch 1" x1="-1.258" y1="506.908" x2="513.726" y2="-8.076" gradientUnits="userSpaceOnUse"><stop offset="0" stop-color="#003f8a"/><stop offset="0.518" stop-color="#00d7df"/><stop offset="1" stop-color="#006df0"/></linearGradient><linearGradient id="b" x1="-30.083" y1="478.083" x2="484.901" y2="-36.901" xlink:href="#a"/><linearGradient id="c" x1="-18.083" y1="490.083" x2="496.901" y2="-24.901" xlink:href="#a"/><linearGradient id="d" x1="-6.083" y1="502.083" x2="508.901" y2="-12.901" xlink:href="#a"/><linearGradient id="e" x1="5.917" y1="514.083" x2="520.901" y2="-0.901" xlink:href="#a"/><linearGradient id="f" x1="17.917" y1="526.083" x2="532.901" y2="11.099" xlink:href="#a"/><linearGradient id="g" x1="29.917" y1="538.083" x2="544.901" y2="23.099" xlink:href="#a"/><linearGradient id="h" x1="-26.083" y1="482.083" x2="488.901" y2="-32.901" xlink:href="#a"/><linearGradient id="i" x1="-10.083" y1="498.083" x2="504.901" y2="-16.901" xlink:href="#a"/><linearGradient id="k" x1="9.917" y1="518.083" x2="524.901" y2="3.099" xlink:href="#a"/><linearGradient id="l" x1="35.917" y1="544.083" x2="550.901" y2="29.099" xlink:href="#a"/></defs><g><path d="M488,336H416V232h24a8.008,8.008,0,0,0,5.66-2.34l48-48A8.008,8.008,0,0,0,496,176V16a8,8,0,0,0-8-8H328a8,8,0,0,0-8,8v88H232V64a8,8,0,0,0-8-8h-8V16a8,8,0,0,0-8-8H32a8,8,0,0,0-8,8V32H16a8,8,0,0,0-8,8V192a8,8,0,0,0,8,8h88V312H96a8,8,0,0,0-8,8v16H64a16.021,16.021,0,0,0-16,16v32a15.958,15.958,0,0,0,2.16,8A15.958,15.958,0,0,0,48,400v32a15.958,15.958,0,0,0,2.16,8A15.958,15.958,0,0,0,48,448v32a16.021,16.021,0,0,0,16,16h96a16.021,16.021,0,0,0,16-16V448a15.958,15.958,0,0,0-2.16-8,15.958,15.958,0,0,0,2.16-8v-8H312v40a16.021,16.021,0,0,0,16,16h40v8h-8a8,8,0,0,0,0,16h96a8,8,0,0,0,0-16h-8v-8h40a16.021,16.021,0,0,0,16-16V352A16.021,16.021,0,0,0,488,336ZM448,204.69V184h20.69ZM336,24H480V168H440a8,8,0,0,0-8,8v40H336ZM40,24H200V56H100.28L86.66,35.56A8.033,8.033,0,0,0,80,32H40ZM24,184V48H75.72L89.34,68.44A8.033,8.033,0,0,0,96,72H216V184Zm80,144h16v8H104Zm56,152H64V448h96l.01,32Zm.01-63.9V432H64V400h96l.01,15.9a.5.5,0,0,0,0,.2ZM160,384H64V352h96l.01,32Zm152-32v56H176v-8a15.958,15.958,0,0,0-2.16-8,15.958,15.958,0,0,0,2.16-8V352a16.021,16.021,0,0,0-16-16H136V320a8,8,0,0,0-8-8h-8V200H224a8,8,0,0,0,8-8V120h88V224a8,8,0,0,0,8,8h72V336H328A16.021,16.021,0,0,0,312,352ZM432,488H384v-8h48Zm56-24H328V352H488l.01,112Z" fill="url(#a)"/><circle cx="80" cy="368" r="8" fill="url(#b)"/><circle cx="104" cy="368" r="8" fill="url(#c)"/><circle cx="80" cy="416" r="8" fill="url(#d)"/><circle cx="104" cy="416" r="8" fill="url(#e)"/><circle cx="80" cy="464" r="8" fill="url(#f)"/><circle cx="104" cy="464" r="8" fill="url(#g)"/><path d="M360,56h96a8,8,0,0,0,0-16H360a8,8,0,0,0,0,16Z" fill="url(#h)"/><path d="M360,88h96a8,8,0,0,0,0-16H360a8,8,0,0,0,0,16Z" fill="url(#i)"/><path d="M360,120h96a8,8,0,0,0,0-16H360a8,8,0,0,0,0,16Z" fill="url(#e)"/><path d="M360,152h48a8,8,0,0,0,0-16H360a8,8,0,0,0,0,16Z" fill="url(#k)"/><path d="M440,136h-8a8,8,0,0,0,0,16h8a8,8,0,0,0,0-16Z" fill="url(#l)"/></g></svg>
