<svg height="512" viewBox="0 0 512 512" width="512" xmlns="http://www.w3.org/2000/svg" xmlns:xlink="http://www.w3.org/1999/xlink"><linearGradient id="a" gradientUnits="userSpaceOnUse" x1="67.277" x2="570.036" y1="564.726" y2="61.967" data-name="New Gradient Swatch 1"><stop offset="0" stop-color="#003f8a"/><stop offset=".518" stop-color="#00d7df"/><stop offset="1" stop-color="#006df0"/></linearGradient><linearGradient id="b" x1="7.275" x2="510.035" xlink:href="#a" y1="504.725" y2="1.965"/><linearGradient id="c" x1="43.275" x2="546.035" xlink:href="#a" y1="540.725" y2="37.965"/><linearGradient id="d" x1="144.927" x2="647.687" xlink:href="#a" y1="642.376" y2="139.617"/><g><path d="m503.48 397.15-64-168a8.014 8.014 0 0 0 -7.48-5.15h-120v-72h48a8 8 0 0 0 6.21-13.04l-104-128a7.994 7.994 0 0 0 -12.42 0l-104 128a8 8 0 0 0 6.21 13.04h48v72h-120a8.014 8.014 0 0 0 -7.48 5.15l-64 168a8.025 8.025 0 0 0 -.52 2.85v96a8 8 0 0 0 8 8h480a8 8 0 0 0 8-8v-96a8.025 8.025 0 0 0 -.52-2.85zm-334.67-261.15 87.19-107.31 87.19 107.31h-39.19a8 8 0 0 0 -8 8v168h-80v-168a8 8 0 0 0 -8-8zm-83.3 104h114.49v80a8 8 0 0 0 8 8h96a8 8 0 0 0 8-8v-80h114.49l57.9 152h-456.78zm402.49 248h-464v-80h464z" fill="url(#a)"/><path d="m40 480h48a8 8 0 0 0 8-8v-48a8 8 0 0 0 -8-8h-48a8 8 0 0 0 -8 8v48a8 8 0 0 0 8 8zm8-48h32v32h-32z" fill="url(#b)"/><path d="m112 480h48a8 8 0 0 0 8-8v-48a8 8 0 0 0 -8-8h-48a8 8 0 0 0 -8 8v48a8 8 0 0 0 8 8zm8-48h32v32h-32z" fill="url(#c)"/><path d="m200 456h233.38a24 24 0 1 0 0-16h-233.38a8 8 0 0 0 0 16zm256-16a8 8 0 1 1 -8 8 8.011 8.011 0 0 1 8-8z" fill="url(#d)"/></g></svg>