<svg height="512" viewBox="0 0 512 512" width="512" xmlns="http://www.w3.org/2000/svg" xmlns:xlink="http://www.w3.org/1999/xlink"><linearGradient id="a" gradientUnits="userSpaceOnUse" x1="39.285" x2="529.135" y1="524.715" y2="34.865" data-name="New Gradient Swatch 1"><stop offset="0" stop-color="#003f8a"/><stop offset=".518" stop-color="#00d7df"/><stop offset="1" stop-color="#006df0"/></linearGradient><linearGradient id="b" x1="5.285" x2="495.135" xlink:href="#a" y1="490.715" y2=".865"/><linearGradient id="c" x1="31.285" x2="521.135" xlink:href="#a" y1="516.715" y2="26.865"/><linearGradient id="d" x1="-32.716" x2="457.135" xlink:href="#a" y1="452.715" y2="-37.136"/><g><path d="m496 400h-32v-260a28.031 28.031 0 0 0 -28-28h-87.76a103.966 103.966 0 0 0 -184.48 0h-87.76a28.031 28.031 0 0 0 -28 28v260h-32a8 8 0 0 0 -8 8v28a28.031 28.031 0 0 0 28 28h440a28.031 28.031 0 0 0 28-28v-28a8 8 0 0 0 -8-8zm-240-328a88 88 0 1 1 -88 88 88.1 88.1 0 0 1 88-88zm0 192a104.112 104.112 0 0 0 104-104q0-4.035-.3-8h64.3v224h-336v-224h64.3q-.3 3.96-.3 8a104.112 104.112 0 0 0 104 104zm-192-124a12.01 12.01 0 0 1 12-12h81.04q-1.275 3.93-2.24 8h-74.8a8 8 0 0 0 -8 8v240a8 8 0 0 0 8 8h352a8 8 0 0 0 8-8v-240a8 8 0 0 0 -8-8h-74.8q-.96-4.065-2.24-8h81.04a12.01 12.01 0 0 1 12 12v260h-384zm224 276v8h-64v-8zm200 20a12.01 12.01 0 0 1 -12 12h-440a12.01 12.01 0 0 1 -12-12v-20h184v16a8 8 0 0 0 8 8h80a8 8 0 0 0 8-8v-16h184z" fill="url(#a)"/><path d="m88 424h-48a8 8 0 0 0 0 16h48a8 8 0 0 0 0-16z" fill="url(#b)"/><path d="m120 424h-8a8 8 0 0 0 0 16h8a8 8 0 0 0 0-16z" fill="url(#c)"/><path d="m211.562 190.656 24 16a8 8 0 0 0 10.095-1l56-56a8 8 0 0 0 -11.314-11.314l-51.363 51.364-18.542-12.362a8 8 0 1 0 -8.876 13.312z" fill="url(#d)"/></g></svg>