<svg height="512" viewBox="0 0 512 512" width="512" xmlns="http://www.w3.org/2000/svg" xmlns:xlink="http://www.w3.org/1999/xlink"><linearGradient id="a" gradientUnits="userSpaceOnUse" x1="2.581" x2="502.095" y1="509.419" y2="9.905" data-name="New Gradient Swatch 1"><stop offset="0" stop-color="#003f8a"/><stop offset=".518" stop-color="#00d7df"/><stop offset="1" stop-color="#006df0"/></linearGradient><linearGradient id="b" x1="-187.419" x2="312.095" xlink:href="#a" y1="319.419" y2="-180.095"/><linearGradient id="c" x1="-171.419" x2="328.095" xlink:href="#a" y1="335.419" y2="-164.095"/><linearGradient id="d" x1="-155.419" x2="344.095" xlink:href="#a" y1="351.419" y2="-148.095"/><linearGradient id="e" x1="160.581" x2="660.095" xlink:href="#a" y1="667.419" y2="167.905"/><linearGradient id="f" x1="192.581" x2="692.095" xlink:href="#a" y1="699.419" y2="199.905"/><linearGradient id="g" x1="36.335" x2="535.849" xlink:href="#a" y1="543.174" y2="43.66"/><linearGradient id="h" x1="42.581" x2="542.095" xlink:href="#a" y1="549.419" y2="49.905"/><linearGradient id="i" x1="6.581" x2="506.095" xlink:href="#a" y1="513.419" y2="13.905"/><g><path d="m476 56h-440a28.032 28.032 0 0 0 -28 28v344a28.032 28.032 0 0 0 28 28h440a28.032 28.032 0 0 0 28-28v-344a28.032 28.032 0 0 0 -28-28zm-440 16h440a12.013 12.013 0 0 1 12 12v20h-464v-20a12.013 12.013 0 0 1 12-12zm440 368h-440a12.013 12.013 0 0 1 -12-12v-308h464v308a12.013 12.013 0 0 1 -12 12z" fill="url(#a)"/><path d="m40 96h8a8 8 0 0 0 0-16h-8a8 8 0 0 0 0 16z" fill="url(#b)"/><path d="m72 96h8a8 8 0 0 0 0-16h-8a8 8 0 0 0 0 16z" fill="url(#c)"/><path d="m104 96h8a8 8 0 0 0 0-16h-8a8 8 0 0 0 0 16z" fill="url(#d)"/><path d="m440 416h-72a8 8 0 0 0 0 16h72a8 8 0 0 0 0-16z" fill="url(#e)"/><path d="m472 416h-8a8 8 0 0 0 0 16h8a8 8 0 0 0 0-16z" fill="url(#f)"/><path d="m380.861 369.731a27.673 27.673 0 0 0 -.467-28.262l-100.46-165.463a28 28 0 0 0 -47.868 0l-100.46 165.463a28 28 0 0 0 23.935 42.531h200.918a27.675 27.675 0 0 0 24.402-14.269zm-13.944-7.846a11.86 11.86 0 0 1 -10.458 6.115h-200.918a12 12 0 0 1 -10.258-18.228l100.46-165.462a12 12 0 0 1 20.514 0l100.46 165.462a11.861 11.861 0 0 1 .2 12.113z" fill="url(#g)"/><path d="m272 312h-32a8 8 0 0 0 -8 8v32a8 8 0 0 0 8 8h32a8 8 0 0 0 8-8v-32a8 8 0 0 0 -8-8zm-8 32h-16v-16h16z" fill="url(#h)"/><path d="m272 224h-32a8 8 0 0 0 -8 8v64a8 8 0 0 0 8 8h32a8 8 0 0 0 8-8v-64a8 8 0 0 0 -8-8zm-8 64h-16v-48h16z" fill="url(#i)"/></g></svg>